<?xml version="1.0" encoding="utf-8"?>
<!-- Generator: Adobe Illustrator 21.0.0, SVG Export Plug-In . SVG Version: 6.00 Build 0)  -->
<svg version="1.1" id="Ebene_1" xmlns="http://www.w3.org/2000/svg" xmlns:xlink="http://www.w3.org/1999/xlink" x="0px" y="0px"
	 viewBox="0 0 252 252" style="enable-background:new 0 0 252 252;" xml:space="preserve">
<style type="text/css">
	.st0{fill:#282B39;}
	.st1{fill:#FF0013;}
	.st2{fill:#FFB000;}
	.st3{fill:#FFFFFF;}
</style>
<circle class="st0" cx="126" cy="126" r="126"/>
<path class="st1" d="M190.5,136.8c0,19.8-16,35.9-35.9,35.9c-19.8,0-35.9-16-35.9-35.9c0-35.3,35.9-59.4,35.9-59.4
	S190.5,104.7,190.5,136.8z"/>
<path class="st1" d="M166.4,140.3c0,29.1-23.6,52.7-52.7,52.7c-29.1,0-52.7-23.6-52.7-52.7C61,88.4,113.7,53,113.7,53
	S166.4,93.2,166.4,140.3z"/>
<path class="st2" d="M162.5,158.8c0,21.8-17.7,39.5-39.5,39.5s-39.5-17.7-39.5-39.5c0-38.9,39.5-65.4,39.5-65.4
	S162.5,123.5,162.5,158.8z"/>
<path class="st3" d="M124.3,178.1c8.9,0,16.1-7.2,16.1-16.1c0-8.9-7.2-16.1-16.1-16.1s-16.1,7.2-16.1,16.1
	C108.2,170.9,115.4,178.1,124.3,178.1z"/>
</svg>
