<?xml version="1.0" encoding="utf-8"?>
<!-- Generator: Adobe Illustrator 21.0.0, SVG Export Plug-In . SVG Version: 6.00 Build 0)  -->
<svg version="1.1" id="Ebene_1" xmlns="http://www.w3.org/2000/svg" xmlns:xlink="http://www.w3.org/1999/xlink" x="0px" y="0px"
	 viewBox="0 0 252 252" style="enable-background:new 0 0 252 252;" xml:space="preserve">
<style type="text/css">
	.st0{fill:#282B39;}
	.st1{fill:#FFFFFF;}
</style>
<circle class="st0" cx="126" cy="126" r="126"/>
<path class="st1" d="M125.6,126.8c20.6,0,37.4-16.7,37.4-37.4c0-20.6-16.7-37.4-37.4-37.4C105,52,88.2,68.7,88.2,89.4
	C88.2,110,105,126.8,125.6,126.8z"/>
<path class="st0" d="M111.5,101.9c6.7,0,12.1-5.4,12.1-12.1s-5.4-12.1-12.1-12.1c-6.7,0-12.1,5.4-12.1,12.1S104.9,101.9,111.5,101.9
	z"/>
<path class="st0" d="M140.6,101.9c6.7,0,12.1-5.4,12.1-12.1s-5.4-12.1-12.1-12.1c-6.7,0-12.1,5.4-12.1,12.1S133.9,101.9,140.6,101.9
	z"/>
<path class="st1" d="M158.1,184.6l-50.5-46.8L96,150.4l50.5,46.8L158.1,184.6z"/>
<path class="st1" d="M113.2,145.3c4.2-4.5,3.9-11.5-0.6-15.7c-4.5-4.2-11.5-3.9-15.7,0.6c-4.2,4.5-3.9,11.5,0.6,15.7
	C102,150.1,109,149.8,113.2,145.3z"/>
<path class="st1" d="M104.5,155.9c4.2-4.5,3.9-11.5-0.6-15.7c-4.5-4.2-11.5-3.9-15.7,0.6s-3.9,11.5,0.6,15.7
	C93.3,160.7,100.3,160.4,104.5,155.9z"/>
<path class="st1" d="M165.2,193.6c4.2-4.5,3.9-11.5-0.6-15.7s-11.5-3.9-15.7,0.6c-4.2,4.5-3.9,11.5,0.6,15.7
	C154,198.4,161,198.1,165.2,193.6z"/>
<path class="st1" d="M156.5,204.2c4.2-4.5,3.9-11.5-0.6-15.7s-11.5-3.9-15.7,0.6s-3.9,11.5,0.6,15.7
	C145.3,208.9,152.4,208.7,156.5,204.2z"/>
<path class="st1" d="M145.9,139.4l-51.4,45.7l11.3,12.8l51.4-45.7L145.9,139.4z"/>
<path class="st1" d="M101.5,196c4.6-4.1,5-11.1,0.9-15.7c-4.1-4.6-11.1-5-15.7-0.9c-4.6,4.1-5,11.1-0.9,15.7
	C89.9,199.6,97,200,101.5,196z"/>
<path class="st1" d="M111.3,205.6c4.6-4.1,5-11.1,0.9-15.7c-4.1-4.6-11.1-5-15.7-0.9c-4.6,4.1-5,11.1-0.9,15.7
	C99.7,209.3,106.7,209.7,111.3,205.6z"/>
<path class="st1" d="M154.6,148.9c4.6-4.1,5-11.1,0.9-15.7c-4.1-4.6-11.1-5-15.7-0.9c-4.6,4.1-5,11.1-0.9,15.7
	S150,152.9,154.6,148.9z"/>
<path class="st1" d="M164.3,158.5c4.6-4.1,5-11.1,0.9-15.7c-4.1-4.6-11.1-5-15.7-0.9s-5,11.1-0.9,15.7
	C152.7,162.1,159.7,162.5,164.3,158.5z"/>
</svg>