<svg width="128" height="128" viewBox="0 0 128 128" fill="none" xmlns="http://www.w3.org/2000/svg">
<path d="M90.9 61.6L91 59.6V59H90.2C89 59 87.7 59.3 86.8 59.9C85.4 60.7 84.6 62.2 84.6 64.3C84.6 67.3 86.1 69 88.7 69C89.5 69 90 68.9 91 68.6V64.3L90.9 61.6V61.6ZM16.3 64.2C16.3 67.4 17.9 69.1 21 69.1C21.7 69.1 22 69.1 23 68.9V59.4C22 59.2 21.8 59.1 21 59.1C18 59.1 16.3 61 16.3 64.2ZM45.9 68.1C45.9 69.3 46.6 69.8 48.2 69.8C49.1 69.8 50 69.7 51 69.5V65.5C47 65.9 45.9 66.5 45.9 68.1V68.1ZM108.9 59C106.6 59 105.2 60.9 105.2 64.2C105.2 67.5 106.5 69.4 108.9 69.4C111.2 69.4 112.5 67.5 112.5 64.2C112.5 61 111.2 59 108.9 59ZM126 43.9C126 40.1 122.9 37 119.1 37H7.9C4.1 37 1 40.1 1 43.9V84C1 87.9 4.1 91 7.9 91H119C122.8 91 125.9 87.9 125.9 84.1V43.9H126ZM10.3 64.3C10.3 58.3 14.3 54.3 20.5 54.3C21.5 54.3 22.1 54.4 23.1 54.6V46H29.1V73C26.1 73.6 23.8 73.8 21.4 73.8C14.1 73.8 10.3 70.6 10.3 64.3V64.3ZM38 68.5C38 73.2 37.8 75.5 36.8 77.5C35.8 79.4 34.7 80.6 32.1 81.9L26.6 79.3C29.2 78.1 30.3 77 31.1 75.3C31.9 73.6 32 71.6 32 66.5V55H38V68.5V68.5ZM38 52H32V46H38V52ZM56 73.3C54 73.7 50.2 74 47.7 74C42.7 74 40.6 72.3 40.6 68.4C40.6 64.2 43.9 62.3 50.9 61.7V60.4C50.9 59.3 50.4 58.9 48.9 58.9C46.7 58.9 43.9 59.5 41.9 60.7V56.1C44.9 54.9 47 54.3 49.7 54.3C52.7 54.3 54.5 55.1 55.4 56.7C55.9 57.6 55.9 58.7 55.9 61.2V73.3H56ZM77 74H71V62.2C71 59.9 70 59.1 67.9 59.1C67.1 59.1 66 59.2 65 59.5V74H59V55.7C63 54.8 65.5 54.4 68.4 54.4C71.4 54.4 73.8 55.1 75.1 56.4C76.4 57.7 77 59 77 62V74V74ZM96.3 62.4L97 68V69.7C97 74.8 96.4 77.2 95.1 79.1C93.3 82 90 83.4 85.4 83.4C83.1 83.4 80.9 83.1 78.9 82.2V76.7C80.9 77.8 83.1 78.3 85.3 78.3C89.2 78.3 90.9 76.7 90.9 73V72.9C89.9 73.5 88.5 73.7 87 73.7C81.8 73.7 78.5 70.3 78.5 64.9C78.5 58.2 83.4 54.4 92 54.4C94.5 54.4 96.9 54.7 99.7 55.2L97.4 59.5C95.8 59.2 98.7 59.5 96.7 59.3L96.3 62.4ZM108.8 74.1C102.9 74.1 99.2 70.4 99.2 64.4C99.2 58.2 103 54.3 109 54.3C114.9 54.3 118.5 58 118.5 64.1C118.6 70.2 114.8 74.1 108.8 74.1Z" fill="black"/>
</svg>
