<svg width="128" height="128" viewBox="0 0 128 128" fill="none" xmlns="http://www.w3.org/2000/svg">
<path fill-rule="evenodd" clip-rule="evenodd" d="M17.2604 2C16.1103 2.0878 14.9806 2.07383 13.8673 2.37216C11.4314 3.02569 9.26695 4.07035 7.35762 5.68073C6.23509 6.6266 5.25542 7.64631 4.42373 8.84761C3.13996 10.7024 2.2654 12.696 1.82659 14.9399C2.00212 15.2402 2.18682 15.5555 2.38276 15.8758C3.62673 17.9092 4.87172 19.9287 6.11875 21.9601L9.39655 27.2892C10.4048 28.9315 11.411 30.5748 12.4172 32.2171L17.1196 39.8878C18.188 41.6319 19.2575 43.377 20.327 45.1201C21.8852 47.6594 23.4476 50.1967 25.0038 52.7369L30.7277 62.0869C32.3779 64.7799 34.0311 67.4708 35.6842 70.1618L35.9047 70.4751C36.1445 70.5499 36.3353 70.486 36.5333 70.4402C38.711 69.9293 40.8887 69.4214 43.0664 68.9126C46.5983 68.0874 50.1302 67.2653 53.6621 66.4391L59.1942 65.145C62.7649 64.3109 66.3365 63.4788 69.9072 62.6427C73.5167 61.7986 77.1251 60.9505 80.7356 60.1054C82.5602 59.6773 84.3848 59.2513 86.2105 58.8253C89.7424 58.0011 93.2743 57.179 96.8062 56.3568L108.346 53.6698L108.969 53.5052L108.799 53.175L105.65 48.8227L102.539 44.5174L99.2125 39.9237L96.0327 35.5206L92.8814 31.1694L89.6281 26.6725C88.5658 25.2058 87.5014 23.7411 86.4381 22.2754L84.7573 19.9546C84.5002 19.5984 84.295 19.2143 84.1583 18.7982C83.8256 17.7895 84.2052 17.118 84.8073 16.6221C85.1971 16.2999 85.6462 16.0634 86.1319 15.9237C86.8085 15.7291 87.4912 15.5426 88.1831 15.4148C89.5699 15.1584 90.966 14.9409 92.3579 14.7144L97.0766 13.9621C98.0716 13.8015 99.0655 13.6329 100.061 13.4682C101.413 13.2447 102.765 13.0202 104.118 12.7997C105.431 12.5842 106.745 12.3707 108.058 12.1592L112.357 11.4717L115.341 10.9818C116.476 10.7962 117.61 10.6116 118.744 10.43C120.158 10.2046 121.571 9.97707 122.986 9.76055C123.829 9.63184 124.672 9.58694 125.508 9.82242C126.136 9.99902 126.707 10.2864 127.239 10.6535L127.975 11.1554C128.048 10.9898 127.942 10.9 127.893 10.8052C126.832 8.70493 125.385 6.89899 123.546 5.39537C121.837 3.99651 119.917 2.96782 117.794 2.3123C116.54 1.92417 115.251 2.10476 113.939 2.00798L17.2604 2ZM56.8093 127C56.746 127 56.6899 126.551 56.6185 126.432C55.0877 123.878 53.5407 121.136 52.0283 118.573C50.1231 115.342 48.2352 112.101 46.3575 108.855C44.3522 105.385 42.3643 101.904 40.3744 98.4262C38.4824 95.1197 36.5966 91.8101 34.7117 88.5005C33.5739 86.5 32.4432 84.4955 31.3064 82.494L31.0043 82.0361L30.4512 82.1428C29.3572 82.4192 28.2653 82.6976 27.1734 82.979C25.6529 83.3701 24.1334 83.7682 22.6118 84.1563C19.1963 85.0254 15.7807 85.8894 12.3651 86.7555C8.89141 87.6375 5.27175 88.5215 1.797 89.3995C1.58576 89.4524 2.02048 89.4704 1 89.5053V110.603C1.42044 111.257 1.38064 110.949 1.40717 111.165C1.48779 111.789 1.61841 112.419 1.73067 113.037C2.15111 115.342 3.0971 117.452 4.46455 119.374C6.4698 122.194 9.14041 124.209 12.4121 125.443C13.5805 125.882 14.8 126.191 16.0471 126.34L17.3135 126.668" fill="#FD4F31"/>
<path fill-rule="evenodd" clip-rule="evenodd" d="M4.976 77.742C8.915 76.805 12.855 75.869 16.794 74.934C18.524 74.524 20.255 74.119 21.985 73.707C22.85 73.501 23.717 73.305 24.575 73.073C25.339 72.867 25.433 72.614 25.04 71.925C24.472 70.929 23.894 69.939 23.319 68.946L18.255 60.226L13.193 51.505C11.476 48.547 9.757 45.589 8.039 42.632C6.568 40.102 5.097 37.572 3.627 35.042C2.991 33.948 2.219 32.851 1.58 31.758C1.461 31.559 2 31.321 1 31.215V78.611C1 78.579 1.453 78.552 1.606 78.515L4.976 77.742V77.742ZM126.224 111.62C124.68 112.169 123.135 112.722 121.592 113.275C118.077 114.535 114.562 115.795 111.047 117.056C109.094 117.757 107.145 118.466 105.191 119.164C101.209 120.585 97.225 122.001 93.242 123.419C90.934 124.241 88.625 125.257 86.318 126.083C85.686 126.31 85.063 127 84.437 127H110.927L111.497 126.673C112.171 126.644 112.834 126.444 113.496 126.323C116.215 125.826 118.65 124.65 120.807 122.931C122.464 121.61 123.812 119.995 124.868 118.153C125.954 116.257 126.599 114.206 126.909 112.052C126.936 111.866 126.994 111.655 126.838 111.463C126.618 111.446 126.424 111.549 126.224 111.62V111.62ZM123.949 76.049C122.781 74.451 121.61 72.856 120.444 71.257C118.835 69.05 117.229 66.841 115.622 64.633C114.969 63.737 114.307 62.848 113.67 61.942C113.478 61.669 113.259 61.596 112.96 61.677L112.789 61.726C109.831 62.445 106.872 63.162 103.913 63.879L98.611 65.166C95.154 66.005 91.696 66.845 88.239 67.685C84.82 68.516 81.401 69.348 77.981 70.177L67.319 72.759C63.822 73.608 60.327 74.46 56.831 75.31L46.689 77.772C44.902 78.206 43.115 78.638 41.33 79.074C41.067 79.138 40.784 79.154 40.504 79.366L40.743 79.821C42.24 82.407 43.737 84.992 45.238 87.576C46.937 90.502 48.637 93.427 50.341 96.35C52.215 99.563 54.094 102.774 55.971 105.986C57.05 107.831 58.122 109.678 59.21 111.518C60.419 113.562 61.632 115.602 62.863 117.633C63.232 118.24 63.651 118.82 64.073 119.392C64.356 119.774 64.706 120.1 65.119 120.349C65.545 120.606 66.004 120.687 66.488 120.578C66.738 120.521 66.983 120.439 67.225 120.355L68.115 120.025C71.352 118.918 74.588 117.811 77.826 116.708C80.352 115.848 82.881 114.992 85.409 114.137C87.918 113.286 90.429 112.439 92.939 111.592L100.413 109.068C102.961 108.207 105.508 107.346 108.055 106.483C111.181 105.422 114.306 104.357 117.434 103.298C120.449 102.278 123.467 101.264 126.483 100.246C126.668 100.184 126.872 100.158 127.025 99.955L127.044 99.516C127.045 93.261 127.043 87.005 127.05 80.75C127.05 80.416 126.961 80.146 126.761 79.877C125.813 78.608 124.884 77.326 123.949 76.049V76.049ZM123.43 17.111C122.728 16.222 121.834 15.94 120.738 16.226C120.261 16.351 119.771 16.43 119.285 16.519C117.691 16.811 116.095 17.098 114.501 17.387C112.167 17.811 109.834 18.239 107.5 18.659C105.652 18.991 103.803 19.318 101.954 19.642L94.536 20.94C94.225 20.994 93.911 21.048 93.611 21.144C93.174 21.284 93.048 21.558 93.248 21.969C93.411 22.305 93.614 22.626 93.834 22.928C95.368 25.042 96.909 27.151 98.45 29.261C100.574 32.17 102.699 35.078 104.824 37.985C106.622 40.445 108.422 42.905 110.221 45.364C111.635 47.296 113.049 49.228 114.465 51.159L114.744 51.497L127.015 48.464L127.044 47.828C127.045 39.317 127.043 30.806 127.05 22.294C127.05 21.918 126.959 21.616 126.722 21.318C125.69 20.015 124.677 18.697 123.656 17.385L123.43 17.111V17.111ZM126.731 58.352C124.875 58.798 123.012 59.222 121.111 59.725C121.312 60.082 126.526 67.12 126.829 67.454L127.019 67.559L127.04 67.13L127.041 64.167C127.042 62.448 127.046 60.729 127.042 59.01C127.042 58.801 127.101 58.576 126.957 58.364L126.731 58.352V58.352Z" fill="#FD4F31"/>
</svg>

